<svg version="1" xmlns="http://www.w3.org/2000/svg" width="682.667" height="682.667" viewBox="0 0 512.000000 512.000000"><path d="M234.8.5c-.2.2-3.9.6-8.3 1-4.4.3-13.2 1.5-19.5 2.6C116.4 19.6 59.5 81.2 49.3 175c-1.5 13.9-.8 54.3 1.1 64.6.2 1.1.7 4.4 1.1 7.4 5.2 39.4 23.9 91 47.3 130 37.2 62.2 94.1 115.7 139.5 131.4 16 5.5 28.8 4.1 48.4-5.4 31.7-15.4 71.4-49.7 98.3-85 1.9-2.5 3.7-4.7 4-5 2.1-1.9 18.1-25.7 24.5-36.5 13.6-22.9 28.2-55.6 35.5-79.5 1.8-5.8 3.3-11.2 3.5-12 .2-.8 1-4.2 1.8-7.5 2.2-8.3 5.3-23.9 6.2-30.5.4-3 .9-6.4 1.1-7.5 1.9-9.4 2.6-47.9 1.2-63-.8-7.8-1.1-10.2-2.4-17.5-.4-1.9-.8-4.4-1-5.5-.5-4-5.3-22.1-8-30-5.9-17.7-20.4-43.6-32.1-57.5C388.5 29.6 344.8 8.2 287 1.4c-5.7-.6-51.6-1.5-52.2-.9zM122 234.6c2.5.4 5.2.9 6 1 .8.2 3 .6 4.9.9 6.6 1.2 21.7 6.8 30.6 11.2 8.2 4.2 22.3 12.6 23.5 14.2.3.4 3.5 3 7.2 5.9 13.9 11 28.5 29.1 36.2 44.9 7.4 15.2 11.5 33.9 8.6 39.2-2.3 4.5-12.3 6.7-28.5 6.3-44.6-1-89.3-27.3-114.2-67.2-8.6-13.8-14.3-28.8-15.9-41.8-.9-7.5 0-10.1 4.2-11.8 8.6-3.6 24.9-4.8 37.4-2.8zm295-.1c6.8 1.2 13 3.7 14.1 5.7.7 1.2.9 4.4.6 7.9-2.7 26.9-22.8 59.5-49.7 80.3-6.8 5.3-20 13.8-20 12.9 0-.3-.8.1-1.7 1-2.2 1.9-16.3 7.7-25.6 10.6-20.6 6.3-45.7 7.1-58.9 1.9-9.2-3.5-.5-35.7 15.9-59.1 7-9.9 22.1-25.4 32.3-33 11.4-8.4 25.4-16.2 38.5-21.2 7.4-2.9 22.2-6.5 29-7.1 3.8-.3 7.1-.7 7.2-.8.5-.5 14.7.3 18.3.9z"/></svg>